<svg version="1.1" id="Layer_1" xmlns="http://www.w3.org/2000/svg" xmlns:xlink="http://www.w3.org/1999/xlink" x="0px" y="0px"
	 width="100%" viewBox="0 0 3188 1125" enable-background="new 0 0 3188 1125" xml:space="preserve">
<path fill="#000000" opacity="1.000000" stroke="none" 
	d="
M2082.000000,1126.000000 
	C1388.000000,1126.000000 694.500000,1126.000000 1.000000,1126.000000 
	C1.000000,751.000000 1.000000,376.000000 1.000000,1.000000 
	C1063.666626,1.000000 2126.333252,1.000000 3189.000000,1.000000 
	C3189.000000,376.000000 3189.000000,751.000000 3189.000000,1126.000000 
	C2820.166748,1126.000000 2451.333252,1126.000000 2082.000000,1126.000000 
M1458.967285,589.627075 
	C1449.204102,574.828064 1439.472412,560.008118 1429.670532,545.234802 
	C1414.433350,522.269531 1399.108276,499.362518 1383.895020,476.381439 
	C1369.042603,453.945129 1354.355713,431.399017 1339.466309,408.987366 
	C1318.151367,376.903534 1296.650146,344.943115 1275.469238,312.771484 
	C1273.833252,310.286713 1272.331421,309.977173 1269.962402,309.982269 
	C1254.131226,310.016388 1238.300171,309.994507 1222.468994,310.011963 
	C1221.367554,310.013184 1220.266357,310.184631 1219.279541,310.267334 
	C1219.279541,476.655121 1219.279541,642.710571 1219.279541,809.000000 
	C1233.531982,809.000000 1247.505981,809.000488 1261.479980,808.999756 
	C1267.998535,808.999451 1267.999634,808.998352 1267.999756,802.469604 
	C1268.000000,662.822449 1268.000000,523.175293 1268.000000,383.528137 
	C1268.000000,381.746277 1268.000000,379.964386 1268.000000,378.182526 
	C1268.462036,377.929932 1268.924072,377.677307 1269.386108,377.424713 
	C1270.593384,378.985596 1271.908813,380.475311 1272.991455,382.118225 
	C1285.404541,400.953644 1297.786499,419.809570 1310.168335,438.665527 
	C1329.886230,468.693085 1349.550903,498.755829 1369.325195,528.746216 
	C1389.550049,559.419678 1409.925049,589.993896 1430.150146,620.667175 
	C1449.924561,650.657532 1469.538330,680.753723 1489.322144,710.737854 
	C1510.266113,742.480530 1531.383911,774.108704 1552.228760,805.915955 
	C1553.876343,808.429993 1555.434814,809.058105 1558.097778,809.040894 
	C1571.761963,808.952698 1585.427002,809.000000 1599.091797,809.000000 
	C1602.683716,809.000000 1606.275635,809.000000 1609.699219,809.000000 
	C1609.699219,642.302673 1609.699219,476.247162 1609.699219,310.302765 
	C1593.658813,310.302765 1577.920776,310.302765 1562.000000,310.302765 
	C1562.000000,331.250916 1562.000000,351.896881 1562.000000,372.542816 
	C1562.000000,393.206604 1562.000000,413.870392 1562.000000,434.534180 
	C1562.000000,455.197968 1562.000000,475.861725 1562.000000,496.525513 
	C1562.000000,517.189270 1562.000000,537.853088 1562.000000,558.516846 
	C1562.000000,579.180664 1562.000000,599.844421 1562.000000,620.508240 
	C1562.000000,641.171997 1562.037598,661.835876 1561.989380,682.499573 
	C1561.941772,702.850342 1562.203125,723.211731 1561.162354,743.536865 
	C1552.826782,732.105774 1545.309082,720.694397 1537.783447,709.288391 
	C1522.521729,686.157654 1507.278687,663.014587 1491.983398,639.906067 
	C1481.037354,623.368530 1470.018799,606.878967 1458.967285,589.627075 
M1941.500000,640.000000 
	C1967.261841,640.000000 1993.023682,640.000000 2020.071777,640.000000 
	C2018.684082,623.131348 2017.472168,606.923157 2015.987061,590.740112 
	C2014.357544,572.985535 2010.144897,555.777283 2003.946777,539.092041 
	C1995.224731,515.611938 1982.788574,494.609436 1964.102295,477.381378 
	C1952.979492,467.126343 1940.657715,459.227905 1927.023926,452.945648 
	C1908.624634,444.467529 1889.077759,441.087738 1869.148682,440.201782 
	C1858.534058,439.729919 1847.823853,441.281219 1837.162964,442.010071 
	C1823.002197,442.978271 1809.633423,447.285126 1796.769409,452.826874 
	C1768.841187,464.858368 1746.992920,484.294830 1729.957886,509.347839 
	C1708.683472,540.635986 1698.765137,575.821594 1696.287598,612.980530 
	C1694.789673,635.446838 1695.622925,658.059021 1699.829834,680.478394 
	C1704.104980,703.260437 1710.494019,725.110901 1722.006592,745.348755 
	C1733.181396,764.993164 1748.219238,780.804688 1766.907715,793.591553 
	C1788.584839,808.423340 1812.927612,815.034485 1838.405029,817.759094 
	C1851.261963,819.134155 1864.389038,818.135925 1877.390625,817.965942 
	C1892.926025,817.762817 1907.777344,813.886963 1922.403809,809.003174 
	C1950.376587,799.663086 1971.939087,781.747925 1988.875977,758.159729 
	C1999.214600,743.760925 2006.924072,727.826355 2012.522095,710.948608 
	C2013.892700,706.816528 2015.089844,702.626892 2016.475830,698.108276 
	C2000.151855,698.108276 1984.845459,698.108276 1970.280762,698.108276 
	C1966.190063,708.042847 1962.765381,717.880249 1958.167725,727.134888 
	C1952.629272,738.282776 1944.287842,747.430359 1934.913208,755.624084 
	C1925.416382,763.924561 1914.393066,769.705994 1902.697021,773.839478 
	C1887.655640,779.155212 1871.944214,780.517639 1855.939087,780.128113 
	C1836.935913,779.665649 1819.177979,775.293457 1802.658081,765.958801 
	C1777.905518,751.972351 1761.562256,730.789124 1752.211304,704.418884 
	C1747.667847,691.606445 1744.802979,678.110657 1742.225098,664.722717 
	C1740.693848,656.769836 1741.199341,648.424805 1740.776123,640.000000 
	C1807.881104,640.000000 1874.190552,640.000000 1941.500000,640.000000 
M3026.454102,670.970886 
	C3040.452881,680.439331 3048.481689,693.509766 3049.979736,710.397400 
	C3051.593018,728.590759 3045.328857,744.053528 3032.616455,756.766663 
	C3017.197510,772.186707 2997.465088,778.243774 2976.458252,779.772949 
	C2963.992432,780.680420 2951.340088,779.691223 2938.812256,778.906189 
	C2924.847900,778.031189 2911.607178,774.261169 2899.429443,767.075500 
	C2890.759521,761.959839 2883.028564,755.816284 2876.980469,747.710510 
	C2865.520020,732.350464 2859.275146,714.800049 2855.647217,696.221313 
	C2841.026367,696.221313 2826.577637,696.221313 2811.870605,696.221313 
	C2812.287354,698.045898 2812.703125,699.591003 2812.988770,701.159729 
	C2814.664307,710.371338 2815.706299,719.746704 2818.076416,728.774292 
	C2825.541016,757.206909 2841.799561,779.546692 2866.154297,796.021362 
	C2888.360596,811.042786 2913.429443,817.140747 2939.658936,818.824463 
	C2950.842773,819.542236 2962.158447,818.497742 2973.398193,817.934448 
	C2979.582520,817.624573 2985.869385,817.240967 2991.872803,815.858887 
	C3006.083252,812.587097 3020.197754,809.160767 3033.742676,803.251648 
	C3050.938721,795.749573 3065.932861,785.562256 3077.432129,770.888855 
	C3090.107178,754.715576 3095.369629,735.632446 3095.869385,715.316223 
	C3096.032959,708.673340 3094.921143,701.955383 3093.947998,695.337097 
	C3091.813477,680.817932 3085.896240,667.916199 3076.285889,656.816895 
	C3061.475830,639.711731 3041.996826,629.763672 3021.001221,623.187927 
	C2997.892090,615.950256 2974.307373,610.212769 2950.873779,604.034119 
	C2930.858398,598.756531 2910.768311,593.830750 2892.629150,583.252319 
	C2877.723877,574.559753 2867.708008,562.301270 2866.135254,544.857178 
	C2863.921875,520.304260 2875.041016,499.778198 2897.718994,488.032410 
	C2912.023438,480.623505 2927.632568,478.924133 2943.346680,478.099854 
	C2948.898438,477.808655 2954.561035,478.307373 2960.083740,479.081024 
	C2969.197998,480.357819 2978.400391,481.540070 2987.275146,483.868286 
	C3000.975342,487.462372 3012.515137,494.851410 3022.163330,505.465271 
	C3028.982422,512.966858 3034.073486,521.229858 3036.997070,530.853638 
	C3039.314697,538.481262 3041.441406,546.166809 3043.622314,553.719971 
	C3057.737305,553.719971 3071.829834,553.719971 3086.348633,553.719971 
	C3085.838379,551.798462 3085.230225,550.272827 3085.046631,548.697693 
	C3082.954590,530.744507 3077.693848,513.808533 3069.000000,497.943634 
	C3059.506348,480.619598 3046.030762,466.982117 3028.864746,457.587494 
	C3007.061279,445.654816 2983.011963,441.324341 2958.444336,440.086273 
	C2943.303955,439.323303 2928.209473,440.318451 2913.202148,442.923126 
	C2899.799561,445.249298 2886.967041,449.291321 2874.786865,455.125641 
	C2862.786133,460.874023 2852.152588,468.854309 2843.616211,479.087097 
	C2838.484619,485.238647 2833.775635,491.988525 2830.203613,499.132935 
	C2825.681641,508.176636 2822.976318,517.929016 2821.814941,528.191162 
	C2820.264404,541.892273 2820.242188,555.505920 2823.483643,568.815247 
	C2828.585205,589.763245 2841.182861,605.505249 2859.275879,617.042358 
	C2876.598389,628.088196 2895.997559,633.915771 2915.596924,638.839111 
	C2933.408691,643.313293 2951.625732,646.148254 2969.523926,650.308533 
	C2989.060791,654.849731 3008.457031,660.027710 3026.454102,670.970886 
M2711.499756,809.000000 
	C2717.932373,809.000000 2724.364746,809.000000 2730.709961,809.000000 
	C2730.709961,689.019470 2730.709961,569.616394 2730.709961,450.294067 
	C2716.345459,450.294067 2702.272705,450.294067 2688.000000,450.294067 
	C2688.000000,452.400024 2688.000000,454.213379 2688.000000,456.026733 
	C2688.000000,521.525146 2688.020752,587.023499 2687.956787,652.521851 
	C2687.952148,657.272034 2687.364746,662.023865 2686.997070,666.770996 
	C2685.906250,680.852417 2682.782715,694.464661 2678.040771,707.778137 
	C2673.009521,721.903259 2665.997314,734.929993 2656.173340,746.169006 
	C2642.961670,761.283264 2626.777344,771.908569 2607.080566,777.124695 
	C2594.599854,780.429932 2581.979004,780.422546 2569.379883,779.823181 
	C2560.697510,779.410156 2551.923584,777.998535 2543.493652,775.846497 
	C2529.401855,772.249084 2516.886230,765.241760 2507.543457,753.909119 
	C2493.437500,736.798828 2488.340576,716.096069 2488.203369,694.678894 
	C2487.693604,615.017456 2488.000000,535.350769 2488.000000,455.686066 
	C2488.000000,453.903748 2488.000000,452.121399 2488.000000,450.227325 
	C2473.481201,450.227325 2459.409668,450.227325 2445.261230,450.227325 
	C2445.152832,450.904114 2445.010742,451.371307 2445.012695,451.837921 
	C2445.334961,532.255127 2445.746094,612.672180 2445.927246,693.089722 
	C2445.959717,707.404053 2447.530762,721.422791 2450.997803,735.273071 
	C2458.941650,767.009827 2476.374023,791.437317 2506.207520,805.957153 
	C2524.854980,815.032776 2545.058594,818.063110 2565.502441,818.819153 
	C2575.630859,819.193787 2585.850342,817.893982 2595.991455,816.953064 
	C2614.841553,815.204163 2631.655762,807.717102 2647.565674,797.914917 
	C2661.333252,789.432739 2671.973145,777.407532 2683.321777,766.188904 
	C2684.528320,764.996338 2685.780029,763.849670 2688.037109,761.707642 
	C2688.037109,778.410034 2688.037109,793.599121 2688.037109,809.000000 
	C2695.878662,809.000000 2703.189453,809.000000 2711.499756,809.000000 
M2156.453369,564.963806 
	C2156.925293,565.434692 2157.471680,565.851501 2157.858398,566.384216 
	C2169.922607,582.999329 2182.040283,599.576416 2193.989746,616.273743 
	C2199.074219,623.378418 2199.084229,623.620850 2194.275146,630.168396 
	C2181.812988,647.135986 2169.204590,663.996521 2156.616455,680.871277 
	C2143.439453,698.535156 2130.174561,716.133301 2117.028320,733.819824 
	C2102.158203,753.825928 2087.365967,773.890198 2072.564941,793.947571 
	C2069.010742,798.763855 2065.556396,803.653687 2061.702881,809.000000 
	C2078.554443,809.000000 2094.386963,809.047485 2110.218506,808.925781 
	C2111.789551,808.913757 2114.003662,808.344971 2114.818604,807.230103 
	C2122.725830,796.409790 2130.348389,785.382019 2138.149414,774.482971 
	C2149.349365,758.834839 2160.613525,743.232178 2171.882080,727.633057 
	C2188.452637,704.693542 2205.157715,681.849792 2221.522217,658.764526 
	C2223.948730,655.341370 2224.805664,655.236694 2227.107178,658.518677 
	C2241.575195,679.153259 2256.242188,699.648254 2270.695801,720.292847 
	C2290.599365,748.722168 2310.414551,777.213684 2330.120117,805.780334 
	C2331.704346,808.076843 2333.081787,809.099976 2335.916260,809.070618 
	C2350.580811,808.918640 2365.247559,809.008545 2379.913574,808.981384 
	C2380.938477,808.979492 2381.962891,808.712524 2383.472900,808.500732 
	C2338.520020,746.395447 2293.932129,684.794067 2249.396240,623.264648 
	C2292.427734,565.710999 2335.411377,508.221497 2378.942139,450.000214 
	C2360.965332,450.000214 2344.302490,449.907440 2327.644287,450.137085 
	C2325.888184,450.161285 2323.617920,451.683380 2322.505371,453.189514 
	C2315.885010,462.150818 2309.572021,471.338318 2303.087158,480.400696 
	C2287.847656,501.697357 2272.521484,522.931885 2257.323486,544.257690 
	C2246.214111,559.846375 2235.252441,575.540283 2223.810303,591.775452 
	C2221.616943,588.662048 2219.761719,586.059082 2217.937744,583.434448 
	C2198.961670,556.129517 2179.984619,528.825195 2161.019775,501.512238 
	C2149.699219,485.208282 2138.441895,468.859985 2127.011230,452.633698 
	C2126.104492,451.346863 2124.071777,450.129120 2122.548828,450.112305 
	C2106.222656,449.931946 2089.893799,450.000031 2072.953613,450.000031 
	C2074.515137,452.427185 2075.764893,454.604584 2077.236328,456.619904 
	C2089.165527,472.958740 2101.147949,489.259003 2113.092041,505.587067 
	C2127.416260,525.168884 2141.718994,544.766479 2156.453369,564.963806 
M826.028870,1009.533752 
	C831.442078,1012.697144 836.714661,1016.137573 842.294678,1018.972534 
	C859.667725,1027.798584 878.304688,1032.336182 897.655273,1032.781494 
	C907.864624,1033.016479 918.277893,1031.785400 928.333435,1029.842041 
	C953.034058,1025.068359 974.437500,1013.285217 992.352600,995.829102 
	C1000.104004,988.276245 1006.809998,979.423584 1012.869141,970.407532 
	C1025.969238,950.914490 1032.062012,928.863220 1032.777344,905.594910 
	C1033.096069,895.229370 1031.550903,884.701294 1029.893555,874.401123 
	C1025.924194,849.730835 1013.705872,829.048340 997.182556,810.802185 
	C989.051636,801.823425 979.289368,794.797424 968.995239,788.284119 
	C949.313232,775.830994 927.705444,770.331726 904.867920,769.166565 
	C897.257507,768.778320 889.548279,770.335693 881.883728,770.997681 
	C867.385742,772.249878 853.905579,777.282898 841.129028,783.625488 
	C825.949524,791.161194 813.259094,802.331299 801.736328,814.754211 
	C795.249390,821.747986 795.224365,821.724304 788.285767,814.785156 
	C721.372437,747.867004 654.459106,680.948792 588.373108,614.858093 
	C584.579041,618.395935 580.845459,621.877380 576.330994,626.086914 
	C646.369080,696.126892 716.464050,766.223694 786.691711,836.453247 
	C776.844910,855.891357 770.955017,869.167603 770.031006,893.825623 
	C769.812683,899.650452 769.698730,905.510315 770.082214,911.318054 
	C770.488892,917.477783 771.074036,923.699402 772.412659,929.708862 
	C775.461060,943.394226 780.584717,956.322083 787.797974,968.411926 
	C797.482971,984.644592 809.920166,998.274902 826.028870,1009.533752 
M701.952759,151.505234 
	C687.490906,188.263367 693.858276,221.536255 718.694458,252.024933 
	C718.246338,252.417694 717.611328,252.958923 716.992981,253.518555 
	C702.811951,266.352814 688.641846,279.199188 674.448914,292.020355 
	C668.108459,297.747955 661.733337,303.437408 655.355713,309.123627 
	C640.156067,322.675476 624.940613,336.209656 609.742859,349.763672 
	C606.058716,353.049316 602.416687,356.382324 598.758362,359.696838 
	C585.629822,371.591522 584.268005,367.175934 597.200195,380.644226 
	C597.397583,380.849792 597.787537,380.870361 598.371704,381.078491 
	C605.457275,374.669037 612.637451,368.170837 619.821228,361.676636 
	C626.776550,355.388947 633.685852,349.049225 640.702759,342.831024 
	C657.647339,327.815033 674.689941,312.909363 691.597961,297.852448 
	C699.966064,290.400513 708.072876,282.655731 716.400085,275.156982 
	C720.273926,271.668579 724.210327,268.185120 728.500854,265.260681 
	C729.911377,264.299316 733.104980,264.262329 734.501831,265.225677 
	C756.336548,280.284241 780.150330,285.929108 806.328369,280.996399 
	C823.869385,277.691162 839.336121,269.925842 852.374817,257.935059 
	C866.619690,244.835083 875.940002,228.817947 880.342468,209.607391 
	C884.025146,193.537918 883.238525,177.963577 878.929443,162.433380 
	C871.849609,136.917419 856.113892,117.604866 833.109131,105.287224 
	C814.564941,95.357903 794.394653,91.967331 772.958862,95.743507 
	C752.353760,99.373344 735.196045,108.616096 720.588745,123.023064 
	C712.574158,130.927765 706.801453,140.536270 701.952759,151.505234 
M118.505341,687.996704 
	C114.872215,692.952576 110.936447,697.716980 107.658012,702.897339 
	C92.972748,726.101929 90.953880,751.043762 97.984055,777.120667 
	C103.077469,796.013550 113.593361,811.570251 128.540146,823.810120 
	C142.317612,835.092407 158.051392,842.280090 176.206985,844.182495 
	C188.117188,845.430420 199.682510,845.141174 211.264526,842.337097 
	C232.580887,837.176453 249.535629,825.465027 263.131439,808.428345 
	C275.789215,792.567200 281.587311,774.193054 282.824860,754.341675 
	C283.256531,747.416870 282.052612,740.302795 280.921478,733.385437 
	C278.338867,717.592041 270.982208,703.936584 261.150635,691.317505 
	C287.387390,669.523682 313.743011,647.631042 340.298370,625.572571 
	C336.847290,621.443909 333.632477,617.597961 330.138458,613.417908 
	C303.150574,635.887207 276.500488,658.075195 249.974899,680.159607 
	C239.275696,670.801331 227.564423,664.415710 214.291687,660.619202 
	C198.206879,656.018311 182.117477,655.632080 165.941360,659.554626 
	C147.464111,664.035095 131.690277,673.196228 118.505341,687.996704 
M311.002502,336.503479 
	C314.068726,339.235443 317.222321,341.876251 320.185242,344.715973 
	C330.242645,354.355255 340.278870,364.017700 350.233215,373.763184 
	C357.660034,381.034210 357.502625,381.000519 364.745361,373.865692 
	C367.656342,370.998108 367.683228,368.878235 364.694000,366.093628 
	C356.573883,358.529297 348.592590,350.814453 340.620270,343.093170 
	C327.980682,330.851624 315.398926,318.550354 302.781952,306.285400 
	C291.478882,295.297729 280.167419,284.318695 268.836761,273.359528 
	C268.059998,272.608215 267.091736,272.054901 266.212372,271.409729 
	C282.527374,248.260056 280.397217,215.751312 256.854034,195.579269 
	C234.468445,176.399094 203.096222,177.248688 182.359818,196.450195 
	C156.166718,220.704483 158.568314,252.046783 175.496933,274.322601 
	C184.130005,285.682587 196.795151,293.471130 211.765335,294.886414 
	C227.587662,296.382233 242.592941,293.748383 255.237869,282.601868 
	C273.803284,300.540863 292.152618,318.271057 311.002502,336.503479 
M529.035095,553.595947 
	C544.147461,535.218079 548.037292,513.965881 543.505066,491.287506 
	C539.946289,473.479553 530.609802,458.661011 515.982666,447.461945 
	C504.439789,438.624390 491.389130,433.195312 476.996735,432.159607 
	C463.112000,431.160461 449.597809,432.978882 436.730621,439.513702 
	C418.794708,448.622803 406.174011,462.146545 399.009674,480.815399 
	C393.694275,494.666351 393.170990,508.919006 396.006927,523.373901 
	C398.199829,534.551025 402.715363,545.146240 409.711365,553.674500 
	C420.657898,567.018616 434.634644,576.840698 452.090454,580.593689 
	C462.556396,582.843750 473.141785,583.734619 483.635284,581.639832 
	C501.928589,577.988159 517.063110,568.742554 529.035095,553.595947 
z"/>
<path fill="#FFFFFF" opacity="1.000000" stroke="none" 
	d="
M1459.000000,589.997559 
	C1470.018799,606.878967 1481.037354,623.368530 1491.983398,639.906067 
	C1507.278687,663.014587 1522.521729,686.157654 1537.783447,709.288391 
	C1545.309082,720.694397 1552.826782,732.105774 1561.162354,743.536865 
	C1562.203125,723.211731 1561.941772,702.850342 1561.989380,682.499573 
	C1562.037598,661.835876 1562.000000,641.171997 1562.000000,620.508240 
	C1562.000000,599.844421 1562.000000,579.180664 1562.000000,558.516846 
	C1562.000000,537.853088 1562.000000,517.189270 1562.000000,496.525513 
	C1562.000000,475.861725 1562.000000,455.197968 1562.000000,434.534180 
	C1562.000000,413.870392 1562.000000,393.206604 1562.000000,372.542816 
	C1562.000000,351.896881 1562.000000,331.250916 1562.000000,310.302765 
	C1577.920776,310.302765 1593.658813,310.302765 1609.699219,310.302765 
	C1609.699219,476.247162 1609.699219,642.302673 1609.699219,809.000000 
	C1606.275635,809.000000 1602.683716,809.000000 1599.091797,809.000000 
	C1585.427002,809.000000 1571.761963,808.952698 1558.097778,809.040894 
	C1555.434814,809.058105 1553.876343,808.429993 1552.228760,805.915955 
	C1531.383911,774.108704 1510.266113,742.480530 1489.322144,710.737854 
	C1469.538330,680.753723 1449.924561,650.657532 1430.150146,620.667175 
	C1409.925049,589.993896 1389.550049,559.419678 1369.325195,528.746216 
	C1349.550903,498.755829 1329.886230,468.693085 1310.168335,438.665527 
	C1297.786499,419.809570 1285.404541,400.953644 1272.991455,382.118225 
	C1271.908813,380.475311 1270.593384,378.985596 1269.386108,377.424713 
	C1268.924072,377.677307 1268.462036,377.929932 1268.000000,378.182526 
	C1268.000000,379.964386 1268.000000,381.746277 1268.000000,383.528137 
	C1268.000000,523.175293 1268.000000,662.822449 1267.999756,802.469604 
	C1267.999634,808.998352 1267.998535,808.999451 1261.479980,808.999756 
	C1247.505981,809.000488 1233.531982,809.000000 1219.279541,809.000000 
	C1219.279541,642.710571 1219.279541,476.655121 1219.279541,310.267334 
	C1220.266357,310.184631 1221.367554,310.013184 1222.468994,310.011963 
	C1238.300171,309.994507 1254.131226,310.016388 1269.962402,309.982269 
	C1272.331421,309.977173 1273.833252,310.286713 1275.469238,312.771484 
	C1296.650146,344.943115 1318.151367,376.903534 1339.466309,408.987366 
	C1354.355713,431.399017 1369.042603,453.945129 1383.895020,476.381439 
	C1399.108276,499.362518 1414.433350,522.269531 1429.670532,545.234802 
	C1439.472412,560.008118 1449.204102,574.828064 1459.000000,589.997559 
z"/>
<path fill="#FFFFFF" opacity="1.000000" stroke="none" 
	d="
M1941.000000,640.000000 
	C1874.190552,640.000000 1807.881104,640.000000 1740.776123,640.000000 
	C1741.199341,648.424805 1740.693848,656.769836 1742.225098,664.722717 
	C1744.802979,678.110657 1747.667847,691.606445 1752.211304,704.418884 
	C1761.562256,730.789124 1777.905518,751.972351 1802.658081,765.958801 
	C1819.177979,775.293457 1836.935913,779.665649 1855.939087,780.128113 
	C1871.944214,780.517639 1887.655640,779.155212 1902.697021,773.839478 
	C1914.393066,769.705994 1925.416382,763.924561 1934.913208,755.624084 
	C1944.287842,747.430359 1952.629272,738.282776 1958.167725,727.134888 
	C1962.765381,717.880249 1966.190063,708.042847 1970.280762,698.108276 
	C1984.845459,698.108276 2000.151855,698.108276 2016.475830,698.108276 
	C2015.089844,702.626892 2013.892700,706.816528 2012.522095,710.948608 
	C2006.924072,727.826355 1999.214600,743.760925 1988.875977,758.159729 
	C1971.939087,781.747925 1950.376587,799.663086 1922.403809,809.003174 
	C1907.777344,813.886963 1892.926025,817.762817 1877.390625,817.965942 
	C1864.389038,818.135925 1851.261963,819.134155 1838.405029,817.759094 
	C1812.927612,815.034485 1788.584839,808.423340 1766.907715,793.591553 
	C1748.219238,780.804688 1733.181396,764.993164 1722.006592,745.348755 
	C1710.494019,725.110901 1704.104980,703.260437 1699.829834,680.478394 
	C1695.622925,658.059021 1694.789673,635.446838 1696.287598,612.980530 
	C1698.765137,575.821594 1708.683472,540.635986 1729.957886,509.347839 
	C1746.992920,484.294830 1768.841187,464.858368 1796.769409,452.826874 
	C1809.633423,447.285126 1823.002197,442.978271 1837.162964,442.010071 
	C1847.823853,441.281219 1858.534058,439.729919 1869.148682,440.201782 
	C1889.077759,441.087738 1908.624634,444.467529 1927.023926,452.945648 
	C1940.657715,459.227905 1952.979492,467.126343 1964.102295,477.381378 
	C1982.788574,494.609436 1995.224731,515.611938 2003.946777,539.092041 
	C2010.144897,555.777283 2014.357544,572.985535 2015.987061,590.740112 
	C2017.472168,606.923157 2018.684082,623.131348 2020.071777,640.000000 
	C1993.023682,640.000000 1967.261841,640.000000 1941.000000,640.000000 
M1953.496704,526.992676 
	C1946.170654,515.211487 1937.003052,505.171753 1925.645020,497.126312 
	C1910.698486,486.538849 1893.925415,480.833435 1875.881836,479.138672 
	C1867.292603,478.331940 1858.532593,478.539276 1849.909424,479.140442 
	C1842.518677,479.655640 1834.980713,480.607910 1827.908936,482.713745 
	C1796.780151,491.983398 1774.955444,512.595337 1760.114380,540.822327 
	C1749.795898,560.447632 1743.649780,581.521179 1741.159912,603.712158 
	C1818.750854,603.712158 1896.276489,603.712158 1974.071777,603.712158 
	C1973.434692,576.503967 1968.080688,550.883545 1953.496704,526.992676 
z"/>
<path fill="#FFFFFF" opacity="1.000000" stroke="none" 
	d="
M3026.198730,670.699585 
	C3008.457031,660.027710 2989.060791,654.849731 2969.523926,650.308533 
	C2951.625732,646.148254 2933.408691,643.313293 2915.596924,638.839111 
	C2895.997559,633.915771 2876.598389,628.088196 2859.275879,617.042358 
	C2841.182861,605.505249 2828.585205,589.763245 2823.483643,568.815247 
	C2820.242188,555.505920 2820.264404,541.892273 2821.814941,528.191162 
	C2822.976318,517.929016 2825.681641,508.176636 2830.203613,499.132935 
	C2833.775635,491.988525 2838.484619,485.238647 2843.616211,479.087097 
	C2852.152588,468.854309 2862.786133,460.874023 2874.786865,455.125641 
	C2886.967041,449.291321 2899.799561,445.249298 2913.202148,442.923126 
	C2928.209473,440.318451 2943.303955,439.323303 2958.444336,440.086273 
	C2983.011963,441.324341 3007.061279,445.654816 3028.864746,457.587494 
	C3046.030762,466.982117 3059.506348,480.619598 3069.000000,497.943634 
	C3077.693848,513.808533 3082.954590,530.744507 3085.046631,548.697693 
	C3085.230225,550.272827 3085.838379,551.798462 3086.348633,553.719971 
	C3071.829834,553.719971 3057.737305,553.719971 3043.622314,553.719971 
	C3041.441406,546.166809 3039.314697,538.481262 3036.997070,530.853638 
	C3034.073486,521.229858 3028.982422,512.966858 3022.163330,505.465271 
	C3012.515137,494.851410 3000.975342,487.462372 2987.275146,483.868286 
	C2978.400391,481.540070 2969.197998,480.357819 2960.083740,479.081024 
	C2954.561035,478.307373 2948.898438,477.808655 2943.346680,478.099854 
	C2927.632568,478.924133 2912.023438,480.623505 2897.718994,488.032410 
	C2875.041016,499.778198 2863.921875,520.304260 2866.135254,544.857178 
	C2867.708008,562.301270 2877.723877,574.559753 2892.629150,583.252319 
	C2910.768311,593.830750 2930.858398,598.756531 2950.873779,604.034119 
	C2974.307373,610.212769 2997.892090,615.950256 3021.001221,623.187927 
	C3041.996826,629.763672 3061.475830,639.711731 3076.285889,656.816895 
	C3085.896240,667.916199 3091.813477,680.817932 3093.947998,695.337097 
	C3094.921143,701.955383 3096.032959,708.673340 3095.869385,715.316223 
	C3095.369629,735.632446 3090.107178,754.715576 3077.432129,770.888855 
	C3065.932861,785.562256 3050.938721,795.749573 3033.742676,803.251648 
	C3020.197754,809.160767 3006.083252,812.587097 2991.872803,815.858887 
	C2985.869385,817.240967 2979.582520,817.624573 2973.398193,817.934448 
	C2962.158447,818.497742 2950.842773,819.542236 2939.658936,818.824463 
	C2913.429443,817.140747 2888.360596,811.042786 2866.154297,796.021362 
	C2841.799561,779.546692 2825.541016,757.206909 2818.076416,728.774292 
	C2815.706299,719.746704 2814.664307,710.371338 2812.988770,701.159729 
	C2812.703125,699.591003 2812.287354,698.045898 2811.870605,696.221313 
	C2826.577637,696.221313 2841.026367,696.221313 2855.647217,696.221313 
	C2859.275146,714.800049 2865.520020,732.350464 2876.980469,747.710510 
	C2883.028564,755.816284 2890.759521,761.959839 2899.429443,767.075500 
	C2911.607178,774.261169 2924.847900,778.031189 2938.812256,778.906189 
	C2951.340088,779.691223 2963.992432,780.680420 2976.458252,779.772949 
	C2997.465088,778.243774 3017.197510,772.186707 3032.616455,756.766663 
	C3045.328857,744.053528 3051.593018,728.590759 3049.979736,710.397400 
	C3048.481689,693.509766 3040.452881,680.439331 3026.198730,670.699585 
z"/>
<path fill="#FFFFFF" opacity="1.000000" stroke="none" 
	d="
M2711.000000,809.000000 
	C2703.189453,809.000000 2695.878662,809.000000 2688.037109,809.000000 
	C2688.037109,793.599121 2688.037109,778.410034 2688.037109,761.707642 
	C2685.780029,763.849670 2684.528320,764.996338 2683.321777,766.188904 
	C2671.973145,777.407532 2661.333252,789.432739 2647.565674,797.914917 
	C2631.655762,807.717102 2614.841553,815.204163 2595.991455,816.953064 
	C2585.850342,817.893982 2575.630859,819.193787 2565.502441,818.819153 
	C2545.058594,818.063110 2524.854980,815.032776 2506.207520,805.957153 
	C2476.374023,791.437317 2458.941650,767.009827 2450.997803,735.273071 
	C2447.530762,721.422791 2445.959717,707.404053 2445.927246,693.089722 
	C2445.746094,612.672180 2445.334961,532.255127 2445.012695,451.837921 
	C2445.010742,451.371307 2445.152832,450.904114 2445.261230,450.227325 
	C2459.409668,450.227325 2473.481201,450.227325 2488.000000,450.227325 
	C2488.000000,452.121399 2488.000000,453.903748 2488.000000,455.686066 
	C2488.000000,535.350769 2487.693604,615.017456 2488.203369,694.678894 
	C2488.340576,716.096069 2493.437500,736.798828 2507.543457,753.909119 
	C2516.886230,765.241760 2529.401855,772.249084 2543.493652,775.846497 
	C2551.923584,777.998535 2560.697510,779.410156 2569.379883,779.823181 
	C2581.979004,780.422546 2594.599854,780.429932 2607.080566,777.124695 
	C2626.777344,771.908569 2642.961670,761.283264 2656.173340,746.169006 
	C2665.997314,734.929993 2673.009521,721.903259 2678.040771,707.778137 
	C2682.782715,694.464661 2685.906250,680.852417 2686.997070,666.770996 
	C2687.364746,662.023865 2687.952148,657.272034 2687.956787,652.521851 
	C2688.020752,587.023499 2688.000000,521.525146 2688.000000,456.026733 
	C2688.000000,454.213379 2688.000000,452.400024 2688.000000,450.294067 
	C2702.272705,450.294067 2716.345459,450.294067 2730.709961,450.294067 
	C2730.709961,569.616394 2730.709961,689.019470 2730.709961,809.000000 
	C2724.364746,809.000000 2717.932373,809.000000 2711.000000,809.000000 
z"/>
<path fill="#FFFFFF" opacity="1.000000" stroke="none" 
	d="
M2156.242188,564.660522 
	C2141.718994,544.766479 2127.416260,525.168884 2113.092041,505.587067 
	C2101.147949,489.259003 2089.165527,472.958740 2077.236328,456.619904 
	C2075.764893,454.604584 2074.515137,452.427185 2072.953613,450.000031 
	C2089.893799,450.000031 2106.222656,449.931946 2122.548828,450.112305 
	C2124.071777,450.129120 2126.104492,451.346863 2127.011230,452.633698 
	C2138.441895,468.859985 2149.699219,485.208282 2161.019775,501.512238 
	C2179.984619,528.825195 2198.961670,556.129517 2217.937744,583.434448 
	C2219.761719,586.059082 2221.616943,588.662048 2223.810303,591.775452 
	C2235.252441,575.540283 2246.214111,559.846375 2257.323486,544.257690 
	C2272.521484,522.931885 2287.847656,501.697357 2303.087158,480.400696 
	C2309.572021,471.338318 2315.885010,462.150818 2322.505371,453.189514 
	C2323.617920,451.683380 2325.888184,450.161285 2327.644287,450.137085 
	C2344.302490,449.907440 2360.965332,450.000214 2378.942139,450.000214 
	C2335.411377,508.221497 2292.427734,565.710999 2249.396240,623.264648 
	C2293.932129,684.794067 2338.520020,746.395447 2383.472900,808.500732 
	C2381.962891,808.712524 2380.938477,808.979492 2379.913574,808.981384 
	C2365.247559,809.008545 2350.580811,808.918640 2335.916260,809.070618 
	C2333.081787,809.099976 2331.704346,808.076843 2330.120117,805.780334 
	C2310.414551,777.213684 2290.599365,748.722168 2270.695801,720.292847 
	C2256.242188,699.648254 2241.575195,679.153259 2227.107178,658.518677 
	C2224.805664,655.236694 2223.948730,655.341370 2221.522217,658.764526 
	C2205.157715,681.849792 2188.452637,704.693542 2171.882080,727.633057 
	C2160.613525,743.232178 2149.349365,758.834839 2138.149414,774.482971 
	C2130.348389,785.382019 2122.725830,796.409790 2114.818604,807.230103 
	C2114.003662,808.344971 2111.789551,808.913757 2110.218506,808.925781 
	C2094.386963,809.047485 2078.554443,809.000000 2061.702881,809.000000 
	C2065.556396,803.653687 2069.010742,798.763855 2072.564941,793.947571 
	C2087.365967,773.890198 2102.158203,753.825928 2117.028320,733.819824 
	C2130.174561,716.133301 2143.439453,698.535156 2156.616455,680.871277 
	C2169.204590,663.996521 2181.812988,647.135986 2194.275146,630.168396 
	C2199.084229,623.620850 2199.074219,623.378418 2193.989746,616.273743 
	C2182.040283,599.576416 2169.922607,582.999329 2157.858398,566.384216 
	C2157.471680,565.851501 2156.925293,565.434692 2156.242188,564.660522 
z"/>
<path fill="#FFFFFF" opacity="1.000000" stroke="none" 
	d="
M825.767273,1009.268677 
	C809.920166,998.274902 797.482971,984.644592 787.797974,968.411926 
	C780.584717,956.322083 775.461060,943.394226 772.412659,929.708862 
	C771.074036,923.699402 770.488892,917.477783 770.082214,911.318054 
	C769.698730,905.510315 769.812683,899.650452 770.031006,893.825623 
	C770.955017,869.167603 776.844910,855.891357 786.691711,836.453247 
	C716.464050,766.223694 646.369080,696.126892 576.330994,626.086914 
	C580.845459,621.877380 584.579041,618.395935 588.373108,614.858093 
	C654.459106,680.948792 721.372437,747.867004 788.285767,814.785156 
	C795.224365,821.724304 795.249390,821.747986 801.736328,814.754211 
	C813.259094,802.331299 825.949524,791.161194 841.129028,783.625488 
	C853.905579,777.282898 867.385742,772.249878 881.883728,770.997681 
	C889.548279,770.335693 897.257507,768.778320 904.867920,769.166565 
	C927.705444,770.331726 949.313232,775.830994 968.995239,788.284119 
	C979.289368,794.797424 989.051636,801.823425 997.182556,810.802185 
	C1013.705872,829.048340 1025.924194,849.730835 1029.893555,874.401123 
	C1031.550903,884.701294 1033.096069,895.229370 1032.777344,905.594910 
	C1032.062012,928.863220 1025.969238,950.914490 1012.869141,970.407532 
	C1006.809998,979.423584 1000.104004,988.276245 992.352600,995.829102 
	C974.437500,1013.285217 953.034058,1025.068359 928.333435,1029.842041 
	C918.277893,1031.785400 907.864624,1033.016479 897.655273,1032.781494 
	C878.304688,1032.336182 859.667725,1027.798584 842.294678,1018.972534 
	C836.714661,1016.137573 831.442078,1012.697144 825.767273,1009.268677 
M906.392334,1017.000061 
	C912.861389,1016.218079 919.489563,1016.084229 925.772095,1014.542175 
	C953.355469,1007.772217 976.384888,993.651917 993.655701,970.811035 
	C1006.957703,953.219055 1014.837769,933.332642 1016.863953,911.422852 
	C1017.999329,899.145081 1016.969177,886.770447 1013.958496,874.742371 
	C1005.704651,841.767700 986.866394,816.607056 957.290222,799.814270 
	C935.466309,787.423096 912.029907,782.748535 886.956543,785.897217 
	C874.325745,787.483337 862.397156,791.042480 851.051025,796.516418 
	C829.350769,806.985840 812.340942,822.767456 800.201904,843.543640 
	C791.398743,858.610168 786.311279,875.095886 785.130493,892.460999 
	C783.902039,910.526733 786.973022,927.971191 793.830750,944.960632 
	C802.791870,967.161133 817.356140,984.782227 836.898621,997.770874 
	C857.405579,1011.400635 880.423584,1018.269470 906.392334,1017.000061 
z"/>
<path fill="#FFFFFF" opacity="1.000000" stroke="none" 
	d="
M701.990234,151.110840 
	C706.801453,140.536270 712.574158,130.927765 720.588745,123.023064 
	C735.196045,108.616096 752.353760,99.373344 772.958862,95.743507 
	C794.394653,91.967331 814.564941,95.357903 833.109131,105.287224 
	C856.113892,117.604866 871.849609,136.917419 878.929443,162.433380 
	C883.238525,177.963577 884.025146,193.537918 880.342468,209.607391 
	C875.940002,228.817947 866.619690,244.835083 852.374817,257.935059 
	C839.336121,269.925842 823.869385,277.691162 806.328369,280.996399 
	C780.150330,285.929108 756.336548,280.284241 734.501831,265.225677 
	C733.104980,264.262329 729.911377,264.299316 728.500854,265.260681 
	C724.210327,268.185120 720.273926,271.668579 716.400085,275.156982 
	C708.072876,282.655731 699.966064,290.400513 691.597961,297.852448 
	C674.689941,312.909363 657.647339,327.815033 640.702759,342.831024 
	C633.685852,349.049225 626.776550,355.388947 619.821228,361.676636 
	C612.637451,368.170837 605.457275,374.669037 598.371704,381.078491 
	C597.787537,380.870361 597.397583,380.849792 597.200195,380.644226 
	C584.268005,367.175934 585.629822,371.591522 598.758362,359.696838 
	C602.416687,356.382324 606.058716,353.049316 609.742859,349.763672 
	C624.940613,336.209656 640.156067,322.675476 655.355713,309.123627 
	C661.733337,303.437408 668.108459,297.747955 674.448914,292.020355 
	C688.641846,279.199188 702.811951,266.352814 716.992981,253.518555 
	C717.611328,252.958923 718.246338,252.417694 718.694458,252.024933 
	C693.858276,221.536255 687.490906,188.263367 701.990234,151.110840 
M710.001831,180.855576 
	C709.688477,191.691681 710.621948,202.292130 713.889771,212.779083 
	C717.903564,225.660263 724.978027,236.677994 734.565552,245.636337 
	C744.206543,254.644638 755.654053,261.192017 768.814026,264.493591 
	C780.962158,267.541321 793.073486,268.091858 805.189880,265.303741 
	C827.364258,260.201141 844.445557,247.729919 856.179260,228.256927 
	C868.174805,208.349213 870.070862,187.034164 863.448975,165.010132 
	C858.517395,148.607758 848.396179,135.689178 834.860046,125.356628 
	C822.289795,115.761360 807.950134,111.022423 792.306946,110.026108 
	C782.926331,109.428680 773.891357,111.110733 764.890137,113.895645 
	C741.642090,121.088387 725.979370,136.597473 716.181702,158.225555 
	C713.113281,164.999176 712.022888,172.668823 710.001831,180.855576 
z"/>
<path fill="#FFFFFF" opacity="1.000000" stroke="none" 
	d="
M118.757278,687.740845 
	C131.690277,673.196228 147.464111,664.035095 165.941360,659.554626 
	C182.117477,655.632080 198.206879,656.018311 214.291687,660.619202 
	C227.564423,664.415710 239.275696,670.801331 249.974899,680.159607 
	C276.500488,658.075195 303.150574,635.887207 330.138458,613.417908 
	C333.632477,617.597961 336.847290,621.443909 340.298370,625.572571 
	C313.743011,647.631042 287.387390,669.523682 261.150635,691.317505 
	C270.982208,703.936584 278.338867,717.592041 280.921478,733.385437 
	C282.052612,740.302795 283.256531,747.416870 282.824860,754.341675 
	C281.587311,774.193054 275.789215,792.567200 263.131439,808.428345 
	C249.535629,825.465027 232.580887,837.176453 211.264526,842.337097 
	C199.682510,845.141174 188.117188,845.430420 176.206985,844.182495 
	C158.051392,842.280090 142.317612,835.092407 128.540146,823.810120 
	C113.593361,811.570251 103.077469,796.013550 97.984055,777.120667 
	C90.953880,751.043762 92.972748,726.101929 107.658012,702.897339 
	C110.936447,697.716980 114.872215,692.952576 118.757278,687.740845 
M110.025848,740.943542 
	C109.776291,751.133972 109.684708,761.325012 112.675179,771.215881 
	C117.615936,787.557251 126.151367,801.346191 139.632858,812.335815 
	C159.660675,828.661743 182.655731,832.861084 206.706726,827.317810 
	C231.510468,821.601013 249.686966,806.100220 260.337402,782.331604 
	C267.768982,765.746521 269.208191,748.618652 264.570465,731.389893 
	C258.327545,708.198059 243.994476,690.859192 222.399017,680.232239 
	C207.427643,672.865112 191.511612,670.843811 174.835556,673.863037 
	C159.585724,676.624023 146.357773,683.012756 135.091812,693.457642 
	C121.461082,706.094849 113.281342,721.723816 110.025848,740.943542 
z"/>
<path fill="#FFFFFF" opacity="1.000000" stroke="none" 
	d="
M310.752197,336.252350 
	C292.152618,318.271057 273.803284,300.540863 255.237869,282.601868 
	C242.592941,293.748383 227.587662,296.382233 211.765335,294.886414 
	C196.795151,293.471130 184.130005,285.682587 175.496933,274.322601 
	C158.568314,252.046783 156.166718,220.704483 182.359818,196.450195 
	C203.096222,177.248688 234.468445,176.399094 256.854034,195.579269 
	C280.397217,215.751312 282.527374,248.260056 266.212463,271.409607 
	C267.091736,272.054901 268.059998,272.608215 268.836761,273.359528 
	C280.167419,284.318695 291.478882,295.297729 302.781952,306.285400 
	C315.398926,318.550354 327.980682,330.851624 340.620270,343.093170 
	C348.592590,350.814453 356.573883,358.529297 364.694000,366.093628 
	C367.683228,368.878235 367.656342,370.998108 364.745361,373.865692 
	C357.502625,381.000519 357.660034,381.034210 350.233215,373.763184 
	C340.278870,364.017700 330.242645,354.355255 320.185242,344.715973 
	C317.222321,341.876251 314.068726,339.235443 310.752197,336.252350 
M247.987442,268.519104 
	C260.981049,256.021667 264.544495,238.801743 257.611664,222.188980 
	C251.495636,207.533447 235.279068,196.127625 216.561905,197.859818 
	C201.848679,199.221466 191.339264,206.372650 184.123718,218.664169 
	C174.434418,235.169693 178.677582,256.443390 192.181458,268.741760 
	C208.191513,283.322601 231.159485,283.852509 247.987442,268.519104 
z"/>
<path fill="#FFFFFF" opacity="1.000000" stroke="none" 
	d="
M529.003906,553.958069 
	C517.063110,568.742554 501.928589,577.988159 483.635284,581.639832 
	C473.141785,583.734619 462.556396,582.843750 452.090454,580.593689 
	C434.634644,576.840698 420.657898,567.018616 409.711365,553.674500 
	C402.715363,545.146240 398.199829,534.551025 396.006927,523.373901 
	C393.170990,508.919006 393.694275,494.666351 399.009674,480.815399 
	C406.174011,462.146545 418.794708,448.622803 436.730621,439.513702 
	C449.597809,432.978882 463.112000,431.160461 476.996735,432.159607 
	C491.389130,433.195312 504.439789,438.624390 515.982666,447.461945 
	C530.609802,458.661011 539.946289,473.479553 543.505066,491.287506 
	C548.037292,513.965881 544.147461,535.218079 529.003906,553.958069 
M421.422485,472.059723 
	C415.249146,480.727051 411.147339,490.392242 410.129578,500.887756 
	C408.243988,520.332520 414.697144,537.551025 428.707031,550.683228 
	C442.755859,563.851868 459.973785,569.877014 479.741760,566.040161 
	C495.693176,562.944092 508.848541,555.327637 518.294983,542.101685 
	C529.910400,525.839172 532.925903,507.633575 526.727844,488.778229 
	C520.672241,470.356445 507.935303,457.496307 489.397003,451.038055 
	C473.268646,445.419342 457.478119,446.772308 442.220306,454.348907 
	C434.056641,458.402802 427.384399,464.259277 421.422485,472.059723 
z"/>
<path fill="#000000" opacity="1.000000" stroke="none" 
	d="
M1953.758545,527.262573 
	C1968.080688,550.883545 1973.434692,576.503967 1974.071777,603.712158 
	C1896.276489,603.712158 1818.750854,603.712158 1741.159912,603.712158 
	C1743.649780,581.521179 1749.795898,560.447632 1760.114380,540.822327 
	C1774.955444,512.595337 1796.780151,491.983398 1827.908936,482.713745 
	C1834.980713,480.607910 1842.518677,479.655640 1849.909424,479.140442 
	C1858.532593,478.539276 1867.292603,478.331940 1875.881836,479.138672 
	C1893.925415,480.833435 1910.698486,486.538849 1925.645020,497.126312 
	C1937.003052,505.171753 1946.170654,515.211487 1953.758545,527.262573 
z"/>
<path fill="#000000" opacity="1.000000" stroke="none" 
	d="
M905.904907,1017.000000 
	C880.423584,1018.269470 857.405579,1011.400635 836.898621,997.770874 
	C817.356140,984.782227 802.791870,967.161133 793.830750,944.960632 
	C786.973022,927.971191 783.902039,910.526733 785.130493,892.460999 
	C786.311279,875.095886 791.398743,858.610168 800.201904,843.543640 
	C812.340942,822.767456 829.350769,806.985840 851.051025,796.516418 
	C862.397156,791.042480 874.325745,787.483337 886.956543,785.897217 
	C912.029907,782.748535 935.466309,787.423096 957.290222,799.814270 
	C986.866394,816.607056 1005.704651,841.767700 1013.958496,874.742371 
	C1016.969177,886.770447 1017.999329,899.145081 1016.863953,911.422852 
	C1014.837769,933.332642 1006.957703,953.219055 993.655701,970.811035 
	C976.384888,993.651917 953.355469,1007.772217 925.772095,1014.542175 
	C919.489563,1016.084229 912.861389,1016.218079 905.904907,1017.000000 
z"/>
<path fill="#000000" opacity="1.000000" stroke="none" 
	d="
M710.014404,180.391937 
	C712.022888,172.668823 713.113281,164.999176 716.181702,158.225555 
	C725.979370,136.597473 741.642090,121.088387 764.890137,113.895645 
	C773.891357,111.110733 782.926331,109.428680 792.306946,110.026108 
	C807.950134,111.022423 822.289795,115.761360 834.860046,125.356628 
	C848.396179,135.689178 858.517395,148.607758 863.448975,165.010132 
	C870.070862,187.034164 868.174805,208.349213 856.179260,228.256927 
	C844.445557,247.729919 827.364258,260.201141 805.189880,265.303741 
	C793.073486,268.091858 780.962158,267.541321 768.814026,264.493591 
	C755.654053,261.192017 744.206543,254.644638 734.565552,245.636337 
	C724.978027,236.677994 717.903564,225.660263 713.889771,212.779083 
	C710.621948,202.292130 709.688477,191.691681 710.014404,180.391937 
z"/>
<path fill="#000000" opacity="1.000000" stroke="none" 
	d="
M110.202896,740.520691 
	C113.281342,721.723816 121.461082,706.094849 135.091812,693.457642 
	C146.357773,683.012756 159.585724,676.624023 174.835556,673.863037 
	C191.511612,670.843811 207.427643,672.865112 222.399017,680.232239 
	C243.994476,690.859192 258.327545,708.198059 264.570465,731.389893 
	C269.208191,748.618652 267.768982,765.746521 260.337402,782.331604 
	C249.686966,806.100220 231.510468,821.601013 206.706726,827.317810 
	C182.655731,832.861084 159.660675,828.661743 139.632858,812.335815 
	C126.151367,801.346191 117.615936,787.557251 112.675179,771.215881 
	C109.684708,761.325012 109.776291,751.133972 110.202896,740.520691 
z"/>
<path fill="#000000" opacity="1.000000" stroke="none" 
	d="
M247.729019,268.768677 
	C231.159485,283.852509 208.191513,283.322601 192.181458,268.741760 
	C178.677582,256.443390 174.434418,235.169693 184.123718,218.664169 
	C191.339264,206.372650 201.848679,199.221466 216.561905,197.859818 
	C235.279068,196.127625 251.495636,207.533447 257.611664,222.188980 
	C264.544495,238.801743 260.981049,256.021667 247.729019,268.768677 
z"/>
<path fill="#000000" opacity="1.000000" stroke="none" 
	d="
M421.691711,471.810913 
	C427.384399,464.259277 434.056641,458.402802 442.220306,454.348907 
	C457.478119,446.772308 473.268646,445.419342 489.397003,451.038055 
	C507.935303,457.496307 520.672241,470.356445 526.727844,488.778229 
	C532.925903,507.633575 529.910400,525.839172 518.294983,542.101685 
	C508.848541,555.327637 495.693176,562.944092 479.741760,566.040161 
	C459.973785,569.877014 442.755859,563.851868 428.707031,550.683228 
	C414.697144,537.551025 408.243988,520.332520 410.129578,500.887756 
	C411.147339,490.392242 415.249146,480.727051 421.691711,471.810913 
z"/>
</svg>