<?xml version="1.0" encoding="UTF-8"?>
<!DOCTYPE svg PUBLIC "-//W3C//DTD SVG 1.1//EN" "http://www.w3.org/Graphics/SVG/1.1/DTD/svg11.dtd">
<svg xmlns="http://www.w3.org/2000/svg" version="1.1" width="3188px" height="1125px" style="shape-rendering:geometricPrecision; text-rendering:geometricPrecision; image-rendering:optimizeQuality; fill-rule:evenodd; clip-rule:evenodd" xmlns:xlink="http://www.w3.org/1999/xlink">
<g><path style="opacity:0.929" fill="#fefffe" d="M 781.5,92.5 C 819.128,91.7256 847.961,107.059 868,138.5C 888.383,177.19 885.383,213.856 859,248.5C 826.77,281.28 789.27,289.113 746.5,272C 741.494,269.499 736.827,266.499 732.5,263C 731.241,262.018 729.908,261.685 728.5,262C 684.833,301 641.167,340 597.5,379C 593.188,377.036 589.688,373.869 587,369.5C 586.251,368.365 586.417,367.365 587.5,366.5C 631.022,327.901 674.355,289.068 717.5,250C 695.52,224.579 688.353,195.412 696,162.5C 709.685,120.975 738.185,97.6416 781.5,92.5 Z M 777.5,108.5 C 815.025,106.504 842.191,122.171 859,155.5C 872.92,194.391 863.754,226.557 831.5,252C 796.561,272.216 763.561,269.549 732.5,244C 708.344,218.198 702.511,188.698 715,155.5C 728.019,129.299 748.853,113.632 777.5,108.5 Z"/></g>
<g><path style="opacity:0.929" fill="#fefffe" d="M 211.5,180.5 C 250.048,180.549 271.381,199.716 275.5,238C 275.049,249.817 271.383,260.484 264.5,270C 298.884,302.206 332.884,334.873 366.5,368C 363.87,371.632 360.87,374.965 357.5,378C 356.5,378.667 355.5,378.667 354.5,378C 321.167,346 287.833,314 254.5,282C 250.279,284.144 245.946,286.477 241.5,289C 214.566,299.015 191.732,293.182 173,271.5C 155.201,242.822 158.367,216.655 182.5,193C 191.315,186.586 200.982,182.419 211.5,180.5 Z M 217.5,195.5 C 242.941,197.774 256.941,211.608 259.5,237C 257.135,261.698 243.635,275.531 219,278.5C 193.56,275.894 179.727,261.894 177.5,236.5C 180.115,212.22 193.448,198.554 217.5,195.5 Z"/></g>
<g><path style="opacity:0.971" fill="#fefffe" d="M 1217.5,308.5 C 1236.08,308.174 1254.58,308.507 1273,309.5C 1368.67,454.167 1464.33,598.833 1560,743.5C 1560.5,598.5 1560.67,453.5 1560.5,308.5C 1576.5,308.5 1592.5,308.5 1608.5,308.5C 1608.5,474.833 1608.5,641.167 1608.5,807.5C 1589.59,807.826 1570.76,807.493 1552,806.5C 1457,662.167 1362,517.833 1267,373.5C 1266.67,517.833 1266.33,662.167 1266,806.5C 1249.91,807.491 1233.74,807.825 1217.5,807.5C 1217.5,641.167 1217.5,474.833 1217.5,308.5 Z"/></g>
<g><path style="opacity:0.932" fill="#fefffe" d="M 459.5,430.5 C 496.036,428.507 522.203,443.84 538,476.5C 550.144,511.093 542.644,540.593 515.5,565C 488.913,583.842 460.913,586.175 431.5,572C 396.955,549.044 385.789,517.544 398,477.5C 410.356,450.956 430.856,435.289 459.5,430.5 Z M 467.5,445.5 C 504.149,449.167 524.482,469.334 528.5,506C 524.505,542.328 504.339,562.162 468,565.5C 438.049,563.548 418.715,548.215 410,519.5C 404.923,487.15 417.09,463.983 446.5,450C 453.47,447.669 460.47,446.169 467.5,445.5 Z"/></g>
<g><path style="opacity:0.972" fill="#fefffe" d="M 1845.5,438.5 C 1929.99,435.126 1984.15,473.793 2008,554.5C 2015.01,582.061 2018.17,610.061 2017.5,638.5C 1924.83,638.5 1832.17,638.5 1739.5,638.5C 1738.67,675.842 1749.17,709.508 1771,739.5C 1799.11,770.318 1833.95,783.151 1875.5,778C 1916.58,773.216 1945.42,752.05 1962,714.5C 1964.54,708.703 1966.38,702.703 1967.5,696.5C 1983.17,696.5 1998.83,696.5 2014.5,696.5C 1991.17,780.365 1935.83,820.531 1848.5,817C 1774.03,813.191 1725.87,775.691 1704,704.5C 1693.38,663.202 1691.71,621.535 1699,579.5C 1708.84,527.569 1735.67,487.402 1779.5,459C 1800.28,447.813 1822.28,440.979 1845.5,438.5 Z M 1852.5,476.5 C 1915.63,476.47 1954.46,507.137 1969,568.5C 1971.1,579.739 1972.26,591.073 1972.5,602.5C 1894.83,602.5 1817.17,602.5 1739.5,602.5C 1743.2,569.213 1755.36,539.546 1776,513.5C 1796.69,491.071 1822.19,478.738 1852.5,476.5 Z"/></g>
<g><path style="opacity:0.973" fill="#fefffe" d="M 2931.5,438.5 C 2962.64,436.524 2992.64,441.358 3021.5,453C 3055.06,470.923 3075.22,498.757 3082,536.5C 3082.94,541.827 3083.78,547.16 3084.5,552.5C 3070.17,552.5 3055.83,552.5 3041.5,552.5C 3033.42,504.27 3004.75,479.104 2955.5,477C 2931.62,474.642 2909.29,479.309 2888.5,491C 2864.99,509.877 2858.82,533.377 2870,561.5C 2876.26,571.097 2884.43,578.597 2894.5,584C 2906.46,589.652 2918.79,594.319 2931.5,598C 2951.81,603.16 2972.14,608.16 2992.5,613C 3016.43,618.805 3038.76,628.139 3059.5,641C 3089.38,665.309 3100.21,696.476 3092,734.5C 3085.76,759.842 3071.59,779.342 3049.5,793C 3026.28,806.296 3001.28,813.963 2974.5,816C 2938.33,821.12 2904,815.453 2871.5,799C 2833.35,774.907 2813.02,740.074 2810.5,694.5C 2825.17,694.5 2839.83,694.5 2854.5,694.5C 2858.05,719.38 2868.72,740.547 2886.5,758C 2899.76,768.206 2914.76,774.54 2931.5,777C 2953.97,780.385 2976.3,779.385 2998.5,774C 3038.49,761.172 3053.99,734.339 3045,693.5C 3039.07,679.781 3029.24,669.948 3015.5,664C 3009.83,661.667 3004.17,659.333 2998.5,657C 2970.06,649.39 2941.39,642.723 2912.5,637C 2894.01,632.504 2876.34,625.837 2859.5,617C 2827.61,595.746 2814.45,565.912 2820,527.5C 2825.12,493.057 2843.29,468.224 2874.5,453C 2892.78,444.847 2911.78,440.014 2931.5,438.5 Z"/></g>
<g><path style="opacity:0.97" fill="#fefffe" d="M 2071.5,449.5 C 2089,448.173 2106.67,448.173 2124.5,449.5C 2156.81,496.466 2189.48,543.133 2222.5,589.5C 2256.29,542.755 2289.96,495.922 2323.5,449C 2341.18,448.167 2358.84,448.334 2376.5,449.5C 2333.87,507.268 2290.87,564.768 2247.5,622C 2292.36,683.36 2337.03,744.86 2381.5,806.5C 2364.51,807.666 2347.51,807.833 2330.5,807C 2294.79,755.746 2258.96,704.579 2223,653.5C 2186.04,704.578 2149.21,755.745 2112.5,807C 2095.17,807.667 2077.83,807.667 2060.5,807C 2106.36,745.307 2152.03,683.474 2197.5,621.5C 2155.83,563.844 2113.83,506.511 2071.5,449.5 Z"/></g>
<g><path style="opacity:0.969" fill="#fefffe" d="M 2443.5,448.5 C 2457.83,448.5 2472.17,448.5 2486.5,448.5C 2486.33,531.834 2486.5,615.167 2487,698.5C 2487.9,723.124 2497.07,743.957 2514.5,761C 2533.65,773.914 2554.81,780.081 2578,779.5C 2629.69,775.797 2663.36,749.131 2679,699.5C 2682.41,687.715 2684.74,675.715 2686,663.5C 2686.5,591.834 2686.67,520.167 2686.5,448.5C 2700.83,448.5 2715.17,448.5 2729.5,448.5C 2729.5,568.167 2729.5,687.833 2729.5,807.5C 2715.17,807.5 2700.83,807.5 2686.5,807.5C 2686.67,791.497 2686.5,775.497 2686,759.5C 2646.54,808.77 2595.7,826.936 2533.5,814C 2486.59,803.422 2458.09,774.589 2448,727.5C 2446.57,720.898 2445.57,714.232 2445,707.5C 2443.55,621.178 2443.05,534.845 2443.5,448.5 Z"/></g>
<g><path style="opacity:0.931" fill="#fefffe" d="M 327.5,612.5 C 329.371,612.859 330.871,613.859 332,615.5C 334.167,618.333 336.333,621.167 338.5,624C 312.352,646.238 286.018,668.238 259.5,690C 280.191,716.12 286.024,745.287 277,777.5C 259.403,823.558 225.903,845.391 176.5,843C 139.635,837.489 113.802,817.656 99,783.5C 84.1117,735.83 96.945,697.664 137.5,669C 171.02,650.736 204.353,651.069 237.5,670C 241.167,672.833 244.833,675.667 248.5,678.5C 274.877,656.447 301.211,634.447 327.5,612.5 Z M 182.5,670.5 C 218.738,671.268 244.571,687.935 260,720.5C 272.259,759.049 262.426,790.549 230.5,815C 200.212,832.881 170.212,832.214 140.5,813C 111.586,788.92 102.42,758.754 113,722.5C 126.063,691.597 149.23,674.263 182.5,670.5 Z"/></g>
<g><path style="opacity:0.933" fill="#fefffe" d="M 585.5,612.5 C 655.132,681.632 724.632,750.965 794,820.5C 831.858,775.066 879.691,759.233 937.5,773C 992.674,792.513 1023.84,831.346 1031,889.5C 1032.46,949.431 1006.63,992.931 953.5,1020C 900.529,1040.63 852.529,1032.63 809.5,996C 769.965,955.689 758.799,908.523 776,854.5C 779.34,847.505 782.34,840.505 785,833.5C 715.333,763.833 645.667,694.167 576,624.5C 575.333,623.833 575.333,623.167 576,622.5C 579.371,619.297 582.538,615.964 585.5,612.5 Z M 887.5,783.5 C 936.316,781.322 973.816,800.656 1000,841.5C 1023.56,887.388 1020.23,931.055 990,972.5C 952.903,1013.64 908.069,1025.14 855.5,1007C 805.192,983.246 781.359,943.413 784,887.5C 790.783,841.385 815.617,809.218 858.5,791C 868.095,787.686 877.762,785.186 887.5,783.5 Z"/></g>
</svg>
