
        <svg xmlns="http://www.w3.org/2000/svg" xmlns:xlink="http://www.w3.org/1999/xlink" version="1.1" width="3187.5" height="1125" viewBox="0 0 3187.5 1125">
			
			<g transform="scale(9.375) translate(10, 10)">
				<defs id="SvgjsDefs3090"/><g id="SvgjsG3091" featureKey="symbolFeature-0" transform="matrix(3.125,0,0,3.125,0,0)" fill="#fff"><g xmlns="http://www.w3.org/2000/svg" display="none"><rect x="-333" y="-132.26" display="inline" width="411.25" height="211.25"/></g><g xmlns="http://www.w3.org/2000/svg" display="none"><g display="inline"><g><g><path d="M12.8,12.52c0.86,0,1.56,0.7,1.56,1.56s-0.7,1.56-1.56,1.56s-1.56-0.7-1.56-1.56S11.94,12.52,12.8,12.52       M12.8,11.52c-1.414,0-2.56,1.146-2.56,2.56c0,1.414,1.146,2.56,2.56,2.56s2.56-1.146,2.56-2.56      C15.36,12.666,14.214,11.52,12.8,11.52L12.8,11.52z"/></g></g><g><g><path d="M23.68,1c1.213,0,2.2,0.987,2.2,2.2s-0.987,2.2-2.2,2.2c-1.213,0-2.2-0.987-2.2-2.2S22.467,1,23.68,1       M23.68,0c-1.767,0-3.2,1.433-3.2,3.2s1.433,3.2,3.2,3.2s3.2-1.433,3.2-3.2S25.447,0,23.68,0L23.68,0z"/></g></g><g><g><path d="M4.274,3.993c0.507,0,0.92,0.413,0.92,0.92c0,0.507-0.413,0.92-0.92,0.92s-0.92-0.413-0.92-0.92      C3.354,4.406,3.766,3.993,4.274,3.993 M4.274,2.993c-1.06,0-1.92,0.86-1.92,1.92s0.86,1.92,1.92,1.92s1.92-0.86,1.92-1.92      S5.334,2.993,4.274,2.993L4.274,2.993z"/></g></g><g><g><path d="M27.52,24.04c1.919,0,3.48,1.561,3.48,3.48c0,1.919-1.561,3.48-3.48,3.48s-3.48-1.561-3.48-3.48      C24.04,25.601,25.601,24.04,27.52,24.04 M27.52,23.04c-2.474,0-4.48,2.006-4.48,4.48c0,2.474,2.006,4.48,4.48,4.48      S32,29.994,32,27.52C32,25.046,29.994,23.04,27.52,23.04L27.52,23.04z"/></g></g><g><g><path d="M3.2,20.2c1.213,0,2.2,0.987,2.2,2.2s-0.987,2.2-2.2,2.2c-1.213,0-2.2-0.987-2.2-2.2      S1.987,20.2,3.2,20.2 M3.2,19.2c-1.767,0-3.2,1.433-3.2,3.2c0,1.767,1.433,3.2,3.2,3.2s3.2-1.433,3.2-3.2      C6.4,20.633,4.967,19.2,3.2,19.2L3.2,19.2z"/></g></g><line stroke="#7216f4" stroke-miterlimit="10" x1="16.64" y1="17.92" x2="24.32" y2="25.6"/><line stroke="#7216f4" stroke-miterlimit="10" x1="9.136" y1="9.556" x2="5.106" y2="5.681"/><line stroke="#7216f4" stroke-miterlimit="10" x1="21.812" y1="5.274" x2="17" y2="9.572"/><line stroke="#7216f4" stroke-miterlimit="10" x1="8.187" y1="17.92" x2="5.12" y2="20.48"/></g></g><g xmlns="http://www.w3.org/2000/svg"><g><path d="M12.8,11.52c-1.414,0-2.56,1.146-2.56,2.56c0,1.414,1.146,2.56,2.56,2.56c1.414,0,2.56-1.146,2.56-2.56    C15.36,12.666,14.214,11.52,12.8,11.52z M12.8,16.14c-1.136,0-2.06-0.924-2.06-2.06c0-1.136,0.924-2.06,2.06-2.06    c1.136,0,2.06,0.924,2.06,2.06C14.86,15.216,13.936,16.14,12.8,16.14z"/><path d="M4.274,2.993c-1.06,0-1.92,0.86-1.92,1.92s0.86,1.92,1.92,1.92c0.462,0,0.88-0.17,1.211-0.442l3.479,3.345L9.31,9.375    L5.83,6.03c0.227-0.315,0.363-0.699,0.363-1.117C6.194,3.853,5.334,2.993,4.274,2.993z M4.274,6.333    c-0.783,0-1.42-0.637-1.42-1.42s0.637-1.42,1.42-1.42c0.783,0,1.42,0.637,1.42,1.42S5.057,6.333,4.274,6.333z"/><path d="M27.52,23.04c-1.474,0-2.771,0.721-3.587,1.82l-7.117-7.117l-0.354,0.354l7.193,7.193    c-0.381,0.659-0.616,1.414-0.616,2.23c0,2.474,2.006,4.48,4.48,4.48S32,29.994,32,27.52S29.994,23.04,27.52,23.04z M27.52,31.5    c-2.195,0-3.98-1.785-3.98-3.98s1.785-3.98,3.98-3.98s3.98,1.785,3.98,3.98S29.715,31.5,27.52,31.5z"/><path d="M3.2,25.6c1.767,0,3.2-1.433,3.2-3.2c0-0.778-0.289-1.481-0.75-2.036l2.698-2.251l-0.32-0.385L5.3,20.003    C4.737,19.509,4.008,19.2,3.2,19.2c-1.767,0-3.2,1.433-3.2,3.2C0,24.167,1.433,25.6,3.2,25.6z M3.2,19.7    c1.489,0,2.7,1.211,2.7,2.7s-1.211,2.7-2.7,2.7s-2.7-1.211-2.7-2.7S1.711,19.7,3.2,19.7z"/><path d="M17.166,9.758l4.542-4.055C22.253,6.133,22.932,6.4,23.68,6.4c1.767,0,3.2-1.433,3.2-3.2c0-1.767-1.433-3.2-3.2-3.2    c-1.767,0-3.2,1.433-3.2,3.2c0,0.838,0.329,1.595,0.857,2.165l-4.503,4.02L17.166,9.758z M23.68,0.5c1.489,0,2.7,1.211,2.7,2.7    c0,1.489-1.211,2.7-2.7,2.7s-2.7-1.211-2.7-2.7C20.98,1.711,22.191,0.5,23.68,0.5z"/></g></g><g xmlns="http://www.w3.org/2000/svg" display="none"><circle display="inline" cx="12.8" cy="14.08" r="2.56"/><path display="inline" d="M27.52,23.04c-1.383,0-2.605,0.64-3.427,1.626l-7.1-7.099l-0.707,0.707l7.246,7.245   c-0.304,0.605-0.492,1.278-0.492,2.001c0,2.474,2.006,4.48,4.48,4.48S32,29.994,32,27.52S29.994,23.04,27.52,23.04z"/><path display="inline" d="M9.483,9.196L5.962,5.81c0.143-0.269,0.232-0.571,0.232-0.897c0-1.06-0.86-1.92-1.92-1.92   c-1.06,0-1.92,0.86-1.92,1.92s0.86,1.92,1.92,1.92c0.37,0,0.713-0.11,1.006-0.291l3.51,3.374L9.483,9.196z"/><path display="inline" d="M17.333,9.945l4.573-4.083C22.414,6.201,23.023,6.4,23.68,6.4c1.767,0,3.2-1.433,3.2-3.2   c0-1.767-1.433-3.2-3.2-3.2c-1.767,0-3.2,1.433-3.2,3.2c0,0.748,0.267,1.427,0.697,1.972l-4.51,4.027L17.333,9.945z"/><path display="inline" d="M7.867,17.536l-2.763,2.305C4.571,19.444,3.917,19.2,3.2,19.2c-1.767,0-3.2,1.433-3.2,3.2   c0,1.767,1.433,3.2,3.2,3.2c1.767,0,3.2-1.433,3.2-3.2c0-0.688-0.222-1.322-0.591-1.844l2.699-2.252L7.867,17.536z"/></g></g><g id="SvgjsG3092" featureKey="nameFeature-0" transform="matrix(1.8456996396737273,0,0,1.8456996396737273,114.16758722001701,2.328162627497182)" fill="#fff"><path d="M22.52 40 l-16.56 -25.12 l-0.08 0 l0 25.12 l-2.72 0 l0 -28.8 l3.08 0 l16.64 25.16 l0.08 0 l0 -25.16 l2.72 0 l0 28.8 l-3.16 0 z M33.24 28.2 l13.52 0 c0 -4.04 -2.24 -7.32 -6.56 -7.32 c-4.24 0 -6.48 3.4 -6.96 7.32 z M49.32 30.2 l-16.08 0 c-0.04 4.48 2.36 8.2 6.96 8.2 c3.12 0 5.56 -1.72 6.28 -4.76 l2.68 0 c-1.2 3.92 -3.68 6.92 -8.96 6.92 c-6.64 0 -9.52 -4.72 -9.52 -10.84 c0 -6.04 3.6 -11 9.52 -11 c5.68 0 9.16 4.04 9.12 11.48 z M67.48 40 l-6.28 -8.96 l-6.44 8.96 l-2.92 0 l7.96 -10.72 l-7.32 -10 l2.96 0 l5.72 8.24 l5.88 -8.24 l3.04 0 l-7.48 10 l7.76 10.72 l-2.88 0 z M88.04 30.560000000000002 l0 -11.28 l2.4 0 l0 20.72 l-2.4 0 l0 -2.88 c-1.28 1.44 -3.04 3.44 -6.68 3.44 c-5.52 0 -7.36 -3.32 -7.36 -7.64 l0 -13.64 l2.4 0 l0 13.6 c0 3.56 1.56 5.52 5.32 5.52 c3.96 0 6.32 -3.28 6.32 -7.84 z M95.20000000000002 33.519999999999996 l2.44 0 c0.76 3.56 2.6 4.88 6.2 4.88 c3.48 0 5.12 -1.84 5.12 -3.84 c0 -6 -13.28 -1.76 -13.28 -9.92 c0 -3.44 2.68 -5.92 7.28 -5.92 c4.48 0 7.4 1.84 8 6.52 l-2.44 0 c-0.44 -3.2 -2.6 -4.36 -5.6 -4.36 c-3.04 0 -4.68 1.44 -4.68 3.56 c0 5.64 13.28 2.12 13.28 10.08 c0 3.96 -3.56 6.04 -8.44 6.04 s-7.68 -3.12 -7.88 -7.04 z"/></g>
			</g>
		</svg>
	